<svg width="21" height="20" viewBox="0 0 21 20" fill="none" xmlns="http://www.w3.org/2000/svg">
<g clip-path="url(#clip0_1_7560)">
<path d="M14.4827 3.33301C14.0253 3.33301 13.6545 3.70611 13.6545 4.16634C13.6545 4.62657 14.0253 4.99967 14.4827 4.99967H17.7953C18.2527 4.99967 18.6235 4.62657 18.6235 4.16634C18.6235 3.70611 18.2527 3.33301 17.7953 3.33301H14.4827Z" fill="white"/>
<path fill-rule="evenodd" clip-rule="evenodd" d="M11.9983 10.8337C11.9983 8.53249 13.8522 6.66699 16.1391 6.66699C18.426 6.66699 20.2799 8.53249 20.2799 10.8337V11.667C20.2799 12.1272 19.9091 12.5003 19.4517 12.5003H13.6546C13.6546 13.8811 14.7669 15.0003 16.1391 15.0003C16.7167 15.0003 17.2482 14.802 17.6702 14.4693C17.8905 14.2955 18.1509 14.167 18.431 14.167C19.1407 14.167 19.5947 14.9046 19.0982 15.4149C18.3466 16.1875 17.2985 16.667 16.1391 16.667C13.8522 16.667 11.9983 14.8015 11.9983 12.5003V10.8337ZM16.1391 8.33366C14.7669 8.33366 13.6546 9.45291 13.6546 10.8337H18.6235C18.6235 9.45291 17.5113 8.33366 16.1391 8.33366Z" fill="white"/>
<path fill-rule="evenodd" clip-rule="evenodd" d="M2.06037 4.99967V8.33301H6.20115C7.11591 8.33301 7.85747 7.58682 7.85747 6.66634C7.85747 5.74587 7.11591 4.99967 6.20115 4.99967H2.06037ZM8.51981 9.04701C9.13325 8.44201 9.51378 7.5989 9.51378 6.66634C9.51378 4.82539 8.03067 3.33301 6.20115 3.33301H1.7291C0.997298 3.33301 0.404053 3.92997 0.404053 4.66634V15.2378C0.404053 16.0268 1.03967 16.6663 1.82375 16.6663H6.20115C8.48804 16.6663 10.3419 14.8008 10.3419 12.4997C10.3419 11.0629 9.61929 9.79609 8.51981 9.04701ZM2.06037 9.99967V14.9997H6.20115C7.57329 14.9997 8.68563 13.8804 8.68563 12.4997C8.68563 11.1189 7.57329 9.99967 6.20115 9.99967H2.06037Z" fill="white"/>
</g>
<defs>
<clipPath id="clip0_1_7560">
<rect width="19.8758" height="20" fill="white" transform="translate(0.404053)"/>
</clipPath>
</defs>
</svg>
