<svg width="83" height="94" viewBox="0 0 83 94" fill="none" xmlns="http://www.w3.org/2000/svg">
<g clip-path="url(#clip0_1_7532)">
<path d="M80.5214 71.6277H78.8912V26.2639C78.8912 23.5894 78.1214 21.3778 76.5818 19.6291C75.0422 17.8804 73.1856 17.006 71.012 17.006H66.1214V12.6856C66.1214 10.6283 65.5327 8.93103 64.3554 7.59377C63.178 6.25652 61.7742 5.58789 60.144 5.58789H40.0384C38.227 5.58789 36.7327 6.25652 35.5553 7.59377C34.378 8.93103 33.7893 10.6283 33.7893 12.6856V17.006H11.7817C9.60814 17.006 7.75153 17.8804 6.21191 19.6291C4.67228 21.3778 3.90247 23.5894 3.90247 26.2639V71.6277H2.27228C1.72888 71.6277 1.32134 71.8335 1.04964 72.2449C0.777939 72.6564 0.64209 73.0679 0.64209 73.4793C0.64209 77.594 1.91002 81.0914 4.44587 83.9716C6.98172 86.8519 10.061 88.292 13.6836 88.292H34.3327C34.695 88.292 35.0119 88.1377 35.2836 87.8291C35.5553 87.5205 35.6912 87.109 35.6912 86.5947C35.6912 86.0804 35.5553 85.6175 35.2836 85.206C35.0119 84.7946 34.695 84.5888 34.3327 84.5888H13.6836C11.3289 84.5888 9.20059 83.7145 7.2987 81.9657C5.39681 80.217 4.26473 78.0054 3.90247 75.3309H78.8912C78.529 78.0054 77.3969 80.217 75.495 81.9657C73.5931 83.7145 71.4648 84.5888 69.1101 84.5888H48.461C48.0987 84.5888 47.7818 84.7946 47.5101 85.206C47.2384 85.6175 47.1025 86.0804 47.1025 86.5947C47.1025 87.109 47.2384 87.5205 47.5101 87.8291C47.7818 88.1377 48.0987 88.292 48.461 88.292H69.1101C72.7327 88.292 75.812 86.8519 78.3478 83.9716C80.8837 81.0914 82.1516 77.594 82.1516 73.4793C82.1516 73.0679 82.0158 72.6564 81.7441 72.2449C81.4724 71.8335 81.0648 71.6277 80.5214 71.6277ZM37.0497 12.6856C37.0497 11.657 37.3214 10.834 37.8648 10.2169C38.4082 9.59966 39.1327 9.29107 40.0384 9.29107H60.144C60.8686 9.29107 61.5478 9.59966 62.1818 10.2169C62.8157 10.834 63.1327 11.657 63.1327 12.6856V29.3499C63.1327 30.1728 62.8157 30.9443 62.1818 31.6644C61.5478 32.3844 60.8686 32.7445 60.144 32.7445H45.2006C44.6572 32.7445 44.295 32.8473 44.1138 33.0531L41.3969 35.8304V34.2875C41.3969 33.876 41.261 33.516 40.9893 33.2074C40.7176 32.8988 40.2648 32.7445 39.6308 32.7445C38.9968 32.7445 38.4082 32.3844 37.8648 31.6644C37.3214 30.9443 37.0497 30.1728 37.0497 29.3499V12.6856ZM6.89115 26.2639C6.89115 24.6181 7.38927 23.2808 8.38549 22.2522C9.38172 21.2235 10.5138 20.7092 11.7817 20.7092H33.7893V24.4123H11.7817C11.4195 24.4123 11.0572 24.5666 10.6949 24.8752C10.3327 25.1838 10.1515 25.6467 10.1515 26.2639V71.6277H6.89115V26.2639ZM19.9327 71.6277V70.7019C19.9327 68.0274 20.7478 65.713 22.378 63.7585C24.0082 61.8041 26.0006 60.8268 28.3553 60.8268H29.1704V64.2214C29.1704 64.8386 29.3063 65.3015 29.578 65.6101C29.8497 65.9187 30.2119 66.073 30.6648 66.073C31.1176 66.073 31.4799 65.9187 31.7516 65.6101C32.0233 65.3015 32.1591 64.8386 32.1591 64.2214V60.8268H32.9742C35.3289 60.8268 37.3214 61.8041 38.9516 63.7585C40.5818 65.713 41.3969 68.0274 41.3969 70.7019V71.6277H19.9327ZM34.8761 52.4947C34.8761 53.7291 34.4685 54.8092 33.6534 55.735C32.8383 56.6608 31.8421 57.1237 30.6648 57.1237C29.4874 57.1237 28.4912 56.6608 27.6761 55.735C26.861 54.8092 26.4534 53.7291 26.4534 52.4947V51.2603C26.4534 50.0259 26.861 48.9458 27.6761 48.02C28.4912 47.0942 29.4874 46.6313 30.6648 46.6313C31.8421 46.6313 32.8383 47.0942 33.6534 48.02C34.4685 48.9458 34.8761 50.0259 34.8761 51.2603V52.4947ZM44.6572 71.6277V70.7019C44.6572 67.616 43.8874 64.89 42.3478 62.5241C40.8082 60.1582 38.7704 58.5638 36.2346 57.7409C37.3214 56.3007 37.8648 54.552 37.8648 52.4947V51.2603C37.8648 48.9973 37.1855 47.0428 35.827 45.397C34.4685 43.7511 32.7478 42.9282 30.6648 42.9282C28.5817 42.9282 26.861 43.7511 25.5025 45.397C24.144 47.0428 23.4648 48.9973 23.4648 51.2603V52.4947C23.4648 54.552 24.0082 56.3007 25.0949 57.7409C22.5591 58.5638 20.5214 60.1582 18.9817 62.5241C17.4421 64.89 16.6723 67.616 16.6723 70.7019V71.6277H13.4119V27.8069H33.7893V29.3499C33.7893 30.79 34.1968 32.1787 35.0119 33.516C35.827 34.8532 36.9591 35.7276 38.4082 36.139V40.4594C38.4082 41.0766 38.6799 41.5909 39.2233 42.0024H40.0384C40.4006 42.0024 40.7629 41.8995 41.1251 41.6938L45.744 36.139H60.144C61.7742 36.139 63.178 35.4704 64.3554 34.1332C65.5327 32.7959 66.1214 31.2015 66.1214 29.3499V27.8069H69.3818V71.6277H44.6572ZM72.6422 71.6277V26.2639C72.6422 25.6467 72.461 25.1838 72.0988 24.8752C71.7365 24.5666 71.3742 24.4123 71.012 24.4123H66.1214V20.7092H71.012C72.2799 20.7092 73.412 21.2235 74.4082 22.2522C75.4044 23.2808 75.9025 24.6181 75.9025 26.2639V71.6277H72.6422ZM44.9289 78.1083H37.8648C37.5025 78.1083 37.1402 78.314 36.778 78.7255C36.4157 79.1369 36.2346 79.5998 36.2346 80.1142C36.2346 80.6285 36.4157 81.04 36.778 81.3486C37.1402 81.6571 37.5025 81.8114 37.8648 81.8114H44.9289C45.4723 81.8114 45.8799 81.6571 46.1516 81.3486C46.4233 81.04 46.5591 80.6285 46.5591 80.1142C46.5591 79.5998 46.4233 79.1369 46.1516 78.7255C45.8799 78.314 45.4723 78.1083 44.9289 78.1083ZM46.2874 27.8069C46.8308 28.2184 47.3742 28.4241 47.9176 28.4241C48.461 28.4241 48.9138 28.2184 49.2761 27.8069L55.2535 23.7951C56.3403 23.1779 56.8837 22.2007 56.8837 20.8635C56.8837 19.5262 56.3403 18.549 55.2535 17.9318L49.2761 13.92C48.3704 13.3028 47.3742 13.3028 46.2874 13.92C45.2006 14.5372 44.6572 15.5659 44.6572 17.006V24.7209C44.6572 26.1611 45.2006 27.1897 46.2874 27.8069ZM47.9176 17.3146L53.6233 21.0178L47.9176 24.4123V17.3146ZM41.3969 84.5888C41.0346 84.5888 40.6723 84.7946 40.3101 85.206C39.9478 85.6175 39.7667 86.0804 39.7667 86.5947C39.7667 87.109 39.9478 87.5205 40.3101 87.8291C40.6723 88.1377 41.0346 88.292 41.3969 88.292C41.7591 88.292 42.1214 88.1377 42.4836 87.8291C42.8459 87.5205 43.027 87.109 43.027 86.5947C43.027 86.0804 42.8459 85.6175 42.4836 85.206C42.1214 84.7946 41.7591 84.5888 41.3969 84.5888Z" fill="white"/>
</g>
<defs>
<clipPath id="clip0_1_7532">
<rect width="81.5095" height="92.5792" fill="white" transform="matrix(1 0 0 -1 0.64209 93.2295)"/>
</clipPath>
</defs>
</svg>
