<svg width="20" height="20" viewBox="0 0 20 20" fill="none" xmlns="http://www.w3.org/2000/svg">
<path fill-rule="evenodd" clip-rule="evenodd" d="M10.0191 16.667C13.6782 16.667 16.6444 13.6822 16.6444 10.0003C16.6444 6.31843 13.6782 3.33366 10.0191 3.33366C6.36009 3.33366 3.39386 6.31843 3.39386 10.0003C3.39386 13.6822 6.36009 16.667 10.0191 16.667ZM10.0191 18.3337C14.5929 18.3337 18.3007 14.6027 18.3007 10.0003C18.3007 5.39795 14.5929 1.66699 10.0191 1.66699C5.44533 1.66699 1.73755 5.39795 1.73755 10.0003C1.73755 14.6027 5.44533 18.3337 10.0191 18.3337Z" fill="white"/>
<path d="M12.8963 17.817C12.6022 15.7085 12.1123 13.7949 11.4227 11.986C9.73465 12.8095 7.84662 14.2485 5.25054 16.8144C4.79633 16.4919 4.3758 16.1246 3.9953 15.719C6.7219 13.0133 8.80438 11.3956 10.7778 10.4489C10.5246 9.89662 10.2517 9.3522 9.95867 8.81278C7.63529 9.54962 4.98614 9.93787 1.73755 9.99337C1.738 9.42137 1.79575 8.86278 1.90532 8.32318C4.77234 8.26137 7.0916 7.92746 9.09896 7.334C8.16721 5.82958 7.07516 4.34462 5.82012 2.816C6.30948 2.52577 6.8311 2.28472 7.37824 2.09961C8.64471 3.66591 9.75436 5.20534 10.7046 6.77966C12.4898 6.06962 14.0722 5.11131 15.6518 3.89123C16.0578 4.27043 16.4259 4.69011 16.7498 5.14388C15.1069 6.42263 13.4315 7.45905 11.534 8.24035C11.8132 8.76512 12.0752 9.2957 12.3199 9.8342C14.197 9.23579 16.0447 9.17395 18.2599 9.16762C18.2869 9.44145 18.3007 9.71929 18.3007 10.0003C18.3007 10.2819 18.2868 10.5602 18.2597 10.8346C16.1195 10.8423 14.5322 10.903 12.9648 11.3778C13.6378 13.1407 14.1357 15.0045 14.4554 17.0384C13.9679 17.3501 13.4459 17.612 12.8963 17.817Z" fill="white"/>
</svg>
