<svg width="82" height="88" viewBox="0 0 82 88" fill="none" xmlns="http://www.w3.org/2000/svg">
<path d="M24.3067 14.3146C24.1255 13.9031 23.8086 13.6459 23.3557 13.5431C22.9029 13.4402 22.4954 13.4916 22.1331 13.6974C21.7708 14.1088 21.4991 14.5203 21.318 14.9318C21.1369 15.3432 21.1821 15.8061 21.4538 16.3204C21.7255 16.8348 22.0878 17.0919 22.5406 17.0919C22.9935 17.0919 23.401 16.9891 23.7633 16.7833C24.1255 16.5776 24.352 16.2176 24.4425 15.7033C24.5331 15.1889 24.4878 14.726 24.3067 14.3146ZM81.0916 28.51L41.9671 1.04488C41.4237 0.633415 40.8803 0.633415 40.3369 1.04488L27.2954 10.3028C26.752 10.5085 26.435 10.8686 26.3444 11.3829C26.2538 11.8972 26.3444 12.3601 26.6161 12.7716C26.8878 13.183 27.2501 13.4402 27.7029 13.5431C28.1557 13.6459 28.5633 13.5945 28.9255 13.3888L41.152 4.74805L77.2879 30.053L41.152 55.358L21.5897 41.7797L38.1633 30.6702C39.069 31.4932 40.1105 31.9046 41.2878 31.9046C42.4652 31.9046 43.552 31.3389 44.5482 30.2073C45.5444 29.0758 46.0425 27.79 46.0425 26.3499C46.0425 24.9097 45.5444 23.6754 44.5482 22.6467C43.552 21.618 42.4199 21.1037 41.152 21.1037C39.884 21.1037 38.752 21.618 37.7557 22.6467C36.7595 23.6754 36.2614 24.9097 36.2614 26.3499L36.5331 27.5843L18.601 39.6196L5.01609 30.053L17.5142 21.1037C17.8765 20.898 18.1029 20.5379 18.1935 20.0236C18.284 19.5093 18.2387 19.0464 18.0576 18.6349C17.8765 18.2235 17.5595 17.9663 17.1067 17.8634C16.6538 17.7606 16.2463 17.812 15.884 18.0177L1.21231 28.51C0.668915 28.9215 0.397217 29.4358 0.397217 30.053C0.397217 30.6702 0.668915 31.1846 1.21231 31.596L15.6123 41.4711L13.7104 42.7055C12.2614 43.7342 11.1293 45.0714 10.3142 46.7173C9.49911 48.3631 9.09157 50.1119 9.09157 51.9634V55.0494C8.1859 55.4609 7.41609 56.0781 6.78213 56.901C6.14817 57.7239 5.83118 58.7526 5.83118 59.987V63.073C4.56326 64.5131 3.9293 66.3647 3.9293 68.6277V85.292C3.9293 85.9092 4.06515 86.3721 4.33684 86.6807C4.60854 86.9893 5.01609 87.1436 5.55949 87.1436H15.6123C16.1557 87.1436 16.5633 86.9893 16.835 86.6807C17.1067 86.3721 17.2425 85.9092 17.2425 85.292V68.6277C17.2425 66.3647 16.6086 64.5131 15.3406 63.073V59.987C15.3406 58.7526 15.0236 57.7239 14.3897 56.901C13.7557 56.0781 12.9859 55.4609 12.0802 55.0494V51.9634C12.0802 50.7291 12.3519 49.5975 12.8953 48.5689C13.4387 47.5402 14.2538 46.7173 15.3406 46.1001L17.2425 44.5571V62.1472C17.2425 62.5586 17.4236 62.9701 17.7859 63.3816C18.1482 63.793 18.5104 63.9987 18.8727 63.9987C22.8576 63.9987 26.6614 64.8731 30.284 66.6218C33.9067 68.3705 37.1671 70.8908 40.0652 74.1825C40.4274 74.3882 40.7897 74.4911 41.152 74.4911C41.5142 74.4911 41.8765 74.3882 42.2388 74.1825C45.1369 70.8908 48.3973 68.3705 52.0199 66.6218C55.6426 64.8731 59.4463 63.9987 63.4312 63.9987C63.7935 63.9987 64.1558 63.793 64.518 63.3816C64.8803 62.9701 65.0614 62.5586 65.0614 62.1472V59.0612C65.0614 58.444 64.8803 57.9811 64.518 57.6725C64.1558 57.3639 63.7935 57.2096 63.4312 57.2096C63.069 57.2096 62.7067 57.3639 62.3444 57.6725C61.9822 57.9811 61.8011 58.444 61.8011 59.0612V60.2956C54.7369 60.707 48.3973 63.4844 42.7822 68.6277V64.9245C42.7822 64.5131 42.601 64.1016 42.2388 63.6902C41.8765 63.2787 41.5142 63.073 41.152 63.073C40.7897 63.073 40.4274 63.2787 40.0652 63.6902C39.7029 64.1016 39.5218 64.5131 39.5218 64.9245V68.6277C33.9067 63.4844 27.5671 60.707 20.5029 60.2956V45.1743L40.3369 59.0612C40.518 59.2669 40.7897 59.3698 41.152 59.3698C41.5142 59.3698 41.7859 59.2669 41.9671 59.0612L61.8011 45.1743V47.0259C61.8011 47.6431 61.9822 48.106 62.3444 48.4146C62.7067 48.7232 63.069 48.8775 63.4312 48.8775C63.7935 48.8775 64.1558 48.7232 64.518 48.4146C64.8803 48.106 65.0614 47.6431 65.0614 47.0259V43.0141L81.0916 31.596C81.635 31.1846 81.9067 30.6702 81.9067 30.053C81.9067 29.4358 81.635 28.9215 81.0916 28.51ZM41.152 24.4983C41.5142 24.4983 41.8765 24.704 42.2388 25.1155C42.601 25.5269 42.7822 25.9898 42.7822 26.5042C42.7822 27.0185 42.601 27.43 42.2388 27.7386C41.8765 28.0471 41.5142 28.2014 41.152 28.2014C40.7897 28.2014 40.4274 28.0471 40.0652 27.7386C39.7029 27.43 39.5218 27.0185 39.5218 26.5042C39.5218 25.9898 39.7029 25.5269 40.0652 25.1155C40.4274 24.704 40.7897 24.4983 41.152 24.4983ZM9.09157 59.987C9.09157 59.5755 9.22741 59.1641 9.49911 58.7526C9.77081 58.3411 10.1331 58.1354 10.5859 58.1354C11.0387 58.1354 11.401 58.3411 11.6727 58.7526C11.9444 59.1641 12.0802 59.5755 12.0802 59.987V60.9128H9.09157V59.987ZM13.9821 68.6277V83.4404H7.18968V68.6277C7.18968 67.3933 7.50666 66.4161 8.14062 65.696C8.77458 64.976 9.58968 64.6159 10.5859 64.6159C11.5821 64.6159 12.3972 64.976 13.0312 65.696C13.6652 66.4161 13.9821 67.3933 13.9821 68.6277ZM64.518 51.3463C64.1558 50.9348 63.7935 50.7291 63.4312 50.7291C63.069 50.7291 62.7067 50.9348 62.3444 51.3463C61.9822 51.7577 61.8011 52.2206 61.8011 52.7349C61.8011 53.2493 61.9822 53.6607 62.3444 53.9693C62.7067 54.2779 63.069 54.4322 63.4312 54.4322C63.7935 54.4322 64.1558 54.2779 64.518 53.9693C64.8803 53.6607 65.0614 53.2493 65.0614 52.7349C65.0614 52.2206 64.8803 51.7577 64.518 51.3463Z" fill="white"/>
</svg>
