<svg width="21" height="20" viewBox="0 0 21 20" fill="none" xmlns="http://www.w3.org/2000/svg">
<path fill-rule="evenodd" clip-rule="evenodd" d="M10.3109 16.667C13.9699 16.667 16.9361 13.6822 16.9361 10.0003C16.9361 6.31843 13.9699 3.33366 10.3109 3.33366C6.65184 3.33366 3.68561 6.31843 3.68561 10.0003C3.68561 13.6822 6.65184 16.667 10.3109 16.667ZM10.3109 18.3337C14.8846 18.3337 18.5924 14.6027 18.5924 10.0003C18.5924 5.39795 14.8846 1.66699 10.3109 1.66699C5.73708 1.66699 2.0293 5.39795 2.0293 10.0003C2.0293 14.6027 5.73708 18.3337 10.3109 18.3337Z" fill="white"/>
<path d="M10.3109 8.33301C10.3109 7.87277 10.6817 7.49967 11.1391 7.49967H11.9672C12.4246 7.49967 12.7954 7.12658 12.7954 6.66634C12.7954 6.20611 12.4246 5.83301 11.9672 5.83301H11.1391C9.7669 5.83301 8.65461 6.9523 8.65461 8.33301V9.99967H7.82645C7.36907 9.99967 6.99829 10.3728 6.99829 10.833C6.99829 11.2933 7.36907 11.6663 7.82645 11.6663H8.65461V16.6663C8.65461 17.1266 9.02537 17.4997 9.48276 17.4997C9.94015 17.4997 10.3109 17.1266 10.3109 16.6663V11.6663H11.9672C12.4246 11.6663 12.7954 11.2933 12.7954 10.833C12.7954 10.3728 12.4246 9.99967 11.9672 9.99967H10.3109V8.33301Z" fill="white"/>
</svg>
