<svg width="82" height="94" viewBox="0 0 82 94" fill="none" xmlns="http://www.w3.org/2000/svg">
<g clip-path="url(#clip0_1_7542)">
<path d="M39.8391 33.9788C40.3825 33.9788 40.7901 33.8245 41.0617 33.5159C41.3334 33.2073 41.4693 32.7958 41.4693 32.2815C41.4693 31.7672 41.3334 31.3043 41.0617 30.8928C40.7901 30.4814 40.4278 30.2756 39.975 30.2756C39.5221 30.2756 39.1146 30.4814 38.7523 30.8928C38.39 31.3043 38.2089 31.7672 38.2089 32.2815C38.2089 32.7958 38.39 33.2073 38.7523 33.5159C39.1146 33.8245 39.4768 33.9788 39.8391 33.9788ZM30.058 33.9788C30.4202 33.9788 30.7825 33.8245 31.1448 33.5159C31.507 33.2073 31.6882 32.7958 31.6882 32.2815C31.6882 31.7672 31.507 31.3043 31.1448 30.8928C30.7825 30.4814 30.4202 30.2756 30.058 30.2756C29.6957 30.2756 29.3334 30.4814 28.9712 30.8928C28.6089 31.3043 28.4278 31.7672 28.4278 32.2815C28.4278 32.7958 28.6089 33.2073 28.9712 33.5159C29.3334 33.8245 29.6957 33.9788 30.058 33.9788ZM72.9863 37.9906C72.624 37.9906 72.3071 38.1449 72.0354 38.4535C71.7637 38.7621 71.6278 39.1735 71.6278 39.6878C71.6278 40.2022 71.7637 40.6651 72.0354 41.0765C72.3071 41.488 72.624 41.6937 72.9863 41.6937C74.6165 41.6937 75.9297 42.2595 76.9259 43.391C77.9222 44.5225 78.4203 45.9112 78.4203 47.5571V74.7136C78.4203 76.5652 77.9222 78.0568 76.9259 79.1883C75.9297 80.3198 74.6165 80.8856 72.9863 80.8856H35.7636C34.3146 80.8856 33.0466 80.3198 31.9599 79.1883C30.8731 78.0568 30.3297 76.5652 30.3297 74.7136V47.5571C30.3297 45.9112 30.8731 44.5225 31.9599 43.391C33.0466 42.2595 34.3146 41.6937 35.7636 41.6937H58.858C59.2203 41.6937 59.5372 41.488 59.8089 41.0765C60.0806 40.6651 60.2165 40.2022 60.2165 39.6878C60.2165 39.1735 60.0806 38.7621 59.8089 38.4535C59.5372 38.1449 59.2203 37.9906 58.858 37.9906H48.8052C48.9863 36.7562 49.0769 35.5218 49.0769 34.2874V26.5725H51.2504C51.6127 26.5725 51.975 26.4182 52.3372 26.1096C52.6995 25.801 52.8806 25.4409 52.8806 25.0295V18.5489C52.8806 15.2572 52.1561 12.2741 50.707 9.5996C49.258 6.92509 47.3108 4.76491 44.8655 3.11906C42.4202 1.47321 39.7485 0.650276 36.8504 0.650276C34.6768 0.650276 32.6844 1.3189 30.8731 2.65616C29.0617 3.99342 27.7032 5.79356 26.7976 8.05661C24.0806 8.26234 21.8617 9.4453 20.141 11.6055C18.4202 13.7657 17.5598 16.2859 17.5598 19.1661V24.4123C17.5598 25.2352 17.8768 25.7495 18.5108 25.9553C19.1447 26.161 19.824 26.3667 20.5485 26.5725V34.2874C20.5485 36.9619 21.1372 39.5335 22.3146 42.0023C23.4919 44.4711 25.0768 46.4256 27.0693 47.8657V49.1001H25.1674C20.6391 49.1001 16.473 50.3859 12.6693 52.9575C8.86549 55.5292 5.83153 58.9752 3.56737 63.2955C1.30322 67.6159 0.171143 72.4506 0.171143 77.7996V82.4286C0.171143 85.3088 1.12209 87.829 3.02398 89.9892C4.92586 92.1494 7.14473 93.2295 9.68059 93.2295H68.6391C69.1825 93.2295 69.5901 93.0752 69.8618 92.7666C70.1335 92.458 70.2693 92.0465 70.2693 91.5322C70.2693 91.0179 70.1335 90.555 69.8618 90.1435C69.5901 89.7321 69.1825 89.5263 68.6391 89.5263H67.2806C68.3674 88.0862 69.092 86.4403 69.4542 84.5888H72.9863C75.5222 84.5888 77.6052 83.6115 79.2354 81.6571C80.8656 79.7026 81.6807 77.3882 81.6807 74.7136V47.5571C81.6807 44.8826 80.8656 42.6195 79.2354 40.7679C77.6052 38.9164 75.5222 37.9906 72.9863 37.9906ZM48.2618 84.5888V89.5263H39.024V88.6005C39.024 87.1604 38.6617 85.8232 37.9372 84.5888H48.2618ZM36.8504 4.35345C40.4731 4.35345 43.507 5.74213 45.9523 8.51951C48.3976 11.2969 49.6202 14.64 49.6202 18.5489V23.1779H36.8504C34.6768 23.1779 32.7749 22.2521 31.1448 20.4005C29.5146 18.5489 28.6995 16.3373 28.6995 13.7657C28.6995 11.194 29.5146 8.98241 31.1448 7.13082C32.7749 5.27924 34.6768 4.35345 36.8504 4.35345ZM20.5485 19.1661C20.5485 17.5203 21.0466 15.9773 22.0429 14.5372C23.0391 13.097 24.2617 12.1712 25.7108 11.7598L25.4391 13.6114C25.4391 16.2859 26.0731 18.7547 27.341 21.0177C25.3485 22.8693 23.0844 23.4865 20.5485 22.8693V19.1661ZM23.8089 34.2874V26.5725C25.9825 26.161 27.8844 25.1323 29.5146 23.4865C31.6882 25.5438 34.1334 26.5725 36.8504 26.5725H46.0882V34.2874C46.0882 35.5218 45.907 36.7562 45.5448 37.9906H35.7636C33.9523 37.9906 32.3221 38.5563 30.8731 39.6878C29.424 40.8194 28.4278 42.2081 27.8844 43.8539C26.6165 42.8253 25.6202 41.4366 24.8957 39.6878C24.1712 37.9391 23.8089 36.139 23.8089 34.2874ZM9.68059 89.5263C7.86926 89.5263 6.37492 88.8577 5.19756 87.5204C4.0202 86.1832 3.43152 84.4859 3.43152 82.4286V77.7996C3.43152 73.2735 4.38247 69.1075 6.28436 65.3014C8.18624 61.4954 10.8579 58.4609 14.2995 56.1978C17.741 53.9348 21.3636 52.8032 25.1674 52.8032H27.0693V74.7136C27.0693 75.948 27.2504 77.0796 27.6127 78.1082H16.2013C15.8391 78.1082 15.4768 78.2625 15.1146 78.5711C14.7523 78.8797 14.5712 79.2912 14.5712 79.8055C14.5712 80.3198 14.7523 80.7313 15.1146 81.0399C15.4768 81.3485 15.8391 81.5028 16.2013 81.5028H27.0693V89.5263H9.68059ZM30.3297 89.5263V84.5888H32.2316C33.1372 84.5888 33.9523 85.0002 34.6768 85.8232C35.4014 86.6461 35.7636 87.5719 35.7636 88.6005V89.5263H30.3297ZM51.5221 84.5888H57.4995V89.5263H51.5221V84.5888ZM60.7599 89.5263V84.5888H66.1938C65.8316 86.0289 65.1523 87.2118 64.1561 88.1376C63.1599 89.0634 62.0278 89.5263 60.7599 89.5263ZM54.5108 54.6548C52.8806 54.6548 51.4769 55.272 50.2995 56.5064C49.1221 57.7408 48.5335 59.2838 48.5335 61.1354C48.5335 62.9869 49.1221 64.5814 50.2995 65.9186C51.4769 67.2559 52.8806 67.9245 54.5108 67.9245C56.141 67.9245 57.4995 67.2559 58.5863 65.9186C59.6731 64.5814 60.2165 62.9869 60.2165 61.1354C60.2165 59.2838 59.6731 57.7408 58.5863 56.5064C57.4995 55.272 56.141 54.6548 54.5108 54.6548ZM54.5108 64.2213C53.6052 64.2213 52.9259 63.9642 52.4731 63.4498C52.0203 62.9355 51.7938 62.2155 51.7938 61.2897C51.7938 60.3639 52.0203 59.5924 52.4731 58.9752C52.9259 58.358 53.5599 58.0494 54.375 58.0494C55.1901 58.0494 55.8693 58.358 56.4127 58.9752C56.9561 59.5924 57.2278 60.3639 57.2278 61.2897C57.2278 62.2155 56.9561 62.9355 56.4127 63.4498C55.8693 63.9642 55.2353 64.2213 54.5108 64.2213ZM65.9221 41.6937C66.2844 41.6937 66.6467 41.488 67.0089 41.0765C67.3712 40.6651 67.5523 40.2022 67.5523 39.6878C67.5523 39.1735 67.3712 38.7621 67.0089 38.4535C66.6467 38.1449 66.2844 37.9906 65.9221 37.9906C65.5599 37.9906 65.1976 38.1449 64.8354 38.4535C64.4731 38.7621 64.292 39.1735 64.292 39.6878C64.292 40.2022 64.4731 40.6651 64.8354 41.0765C65.1976 41.488 65.5599 41.6937 65.9221 41.6937Z" fill="white"/>
</g>
<defs>
<clipPath id="clip0_1_7542">
<rect width="81.5095" height="92.5792" fill="white" transform="matrix(1 0 0 -1 0.171143 93.2295)"/>
</clipPath>
</defs>
</svg>
