<svg width="21" height="20" viewBox="0 0 21 20" fill="none" xmlns="http://www.w3.org/2000/svg">
<path fill-rule="evenodd" clip-rule="evenodd" d="M13.9776 3.33366H7.35237C5.52285 3.33366 4.03974 4.82604 4.03974 6.66699V13.3337C4.03974 15.1746 5.52285 16.667 7.35237 16.667H13.9776C15.8071 16.667 17.2903 15.1746 17.2903 13.3337V6.66699C17.2903 4.82604 15.8071 3.33366 13.9776 3.33366ZM7.35237 1.66699C4.60809 1.66699 2.38342 3.90557 2.38342 6.66699V13.3337C2.38342 16.0951 4.60809 18.3337 7.35237 18.3337H13.9776C16.7219 18.3337 18.9466 16.0951 18.9466 13.3337V6.66699C18.9466 3.90557 16.7219 1.66699 13.9776 1.66699H7.35237Z" fill="white"/>
<path d="M14.8057 6.66667C15.2631 6.66667 15.6339 6.29357 15.6339 5.83333C15.6339 5.3731 15.2631 5 14.8057 5C14.3483 5 13.9775 5.3731 13.9775 5.83333C13.9775 6.29357 14.3483 6.66667 14.8057 6.66667Z" fill="white"/>
<path fill-rule="evenodd" clip-rule="evenodd" d="M14.8057 9.99967C14.8057 12.3008 12.9518 14.1663 10.665 14.1663C8.37807 14.1663 6.52417 12.3008 6.52417 9.99967C6.52417 7.69849 8.37807 5.83301 10.665 5.83301C12.9518 5.83301 14.8057 7.69849 14.8057 9.99967ZM13.1494 9.99967C13.1494 11.3804 12.0371 12.4997 10.665 12.4997C9.29278 12.4997 8.18048 11.3804 8.18048 9.99967C8.18048 8.61892 9.29278 7.49967 10.665 7.49967C12.0371 7.49967 13.1494 8.61892 13.1494 9.99967Z" fill="white"/>
</svg>
