<svg width="20" height="20" viewBox="0 0 20 20" fill="none" xmlns="http://www.w3.org/2000/svg">
<path d="M9.93569 0.623047C6.16968 0.623047 3.10401 3.70789 3.104 7.49743C3.104 14.1654 9.55055 19.2346 9.55055 19.2346C9.66059 19.323 9.7972 19.3711 9.93798 19.3711C10.0788 19.3711 10.2154 19.323 10.3254 19.2346C10.3254 19.2346 16.772 14.1654 16.772 7.49743C16.772 3.70789 13.7017 0.623047 9.93569 0.623047ZM9.93569 1.87335C13.0303 1.87335 15.5294 4.38343 15.5294 7.49743C15.5294 12.9524 10.6206 17.2622 9.94028 17.8459C9.26321 17.2651 4.34654 12.9545 4.34655 7.49743C4.34655 4.38343 6.84103 1.87335 9.93569 1.87335Z" fill="white"/>
<path d="M9.9356 4.37402C8.2278 4.37402 6.83155 5.77901 6.83154 7.49749C6.83153 9.21599 8.22778 10.6256 9.9356 10.6256C11.6434 10.6256 13.0443 9.21599 13.0443 7.49749C13.0442 5.77901 11.6434 4.37402 9.9356 4.37402ZM9.9356 5.62433C10.9721 5.62433 11.8017 6.45455 11.8017 7.49749C11.8017 8.54042 10.9721 9.37525 9.9356 9.37525C8.89914 9.37525 8.07408 8.54042 8.07408 7.49749C8.07409 6.45455 8.89915 5.62433 9.9356 5.62433Z" fill="white"/>
</svg>
