<svg width="20" height="19" viewBox="0 0 20 19" fill="none" xmlns="http://www.w3.org/2000/svg">
<g clip-path="url(#clip0_1_7575)">
<path d="M16.9638 12.9992V15.3742C16.9646 15.5947 16.9195 15.813 16.8312 16.015C16.7428 16.217 16.6133 16.3983 16.4508 16.5474C16.2883 16.6964 16.0965 16.8099 15.8877 16.8806C15.6788 16.9512 15.4575 16.9774 15.2379 16.9576C12.8018 16.6929 10.4618 15.8604 8.40584 14.5272C6.49303 13.3117 4.87131 11.69 3.65584 9.77716C2.3179 7.71186 1.48528 5.36045 1.22542 2.91341C1.20564 2.69449 1.23165 2.47385 1.30182 2.26553C1.37198 2.05721 1.48475 1.86579 1.63294 1.70344C1.78114 1.5411 1.96152 1.41139 2.16259 1.32257C2.36366 1.23376 2.58102 1.18778 2.80084 1.18758H5.17584C5.56004 1.1838 5.93251 1.31985 6.22381 1.57037C6.51512 1.8209 6.7054 2.16881 6.75917 2.54924C6.85941 3.3093 7.04532 4.05557 7.31334 4.77383C7.41985 5.05718 7.4429 5.36513 7.37976 5.66119C7.31662 5.95725 7.16994 6.229 6.95709 6.44424L5.95167 7.44966C7.07865 9.43163 8.7197 11.0727 10.7017 12.1997L11.7071 11.1942C11.9223 10.9814 12.1941 10.8347 12.4901 10.7716C12.7862 10.7084 13.0941 10.7315 13.3775 10.838C14.0958 11.106 14.842 11.2919 15.6021 11.3922C15.9867 11.4464 16.3379 11.6401 16.5889 11.9364C16.84 12.2327 16.9734 12.611 16.9638 12.9992Z" stroke="white" stroke-width="1.3" stroke-linecap="round" stroke-linejoin="round"/>
</g>
<defs>
<clipPath id="clip0_1_7575">
<rect width="19" height="19" fill="white" transform="translate(0.03125)"/>
</clipPath>
</defs>
</svg>
